<?xml version="1.0"?>
<svg xmlns="http://www.w3.org/2000/svg" class="icon icon-tabler icon-tabler-eye" version="1.2" baseProfile="tiny" width="28" height="28" viewBox="0 0 800 324" stroke-linecap="round" stroke-linejoin="round">
<g id="area_svg">
<path d="M 792.37 95.48 790.91 124.59 784.29 225.61 761.53 224.39 758.09 276.8 780.86 278.02 778.41 315.46 671.9 323 665.43 248.23 528.94 257.91 533.35 307.83 528.45 301.41 525.64 302.32 521.08 308.94 515.66 311.38 509.71 312.46 504.23 310.66 503.08 304.26 503.91 300.39 500.93 296.88 490.43 301.92 484.23 301.46 479.99 300.3 468.61 287.88 459.87 284.16 452.34 285.23 448.51 290.38 444.21 289.5 441.15 284.93 436.73 284.59 430.99 288.02 427.68 287.14 426.41 284.45 428.33 279.37 418.11 281.15 414.27 284.52 403.68 277.68 393.22 276.64 388.85 271.23 366.47 267.11 361.3 276.18 351.57 273.18 359.6 260.74 345.32 258.88 344.83 253.61 332.53 256.57 335.37 241.49 342.36 234.71 325.2 228.83 314.03 235.22 302.01 235.52 294.11 228.06 289.84 230.48 286.85 239.97 282.66 244.02 269.62 242.01 255.43 245.39 253.31 252.19 250.1 258.82 219.65 269.2 198.06 273.83 201.86 285.72 201.2 295.45 183.37 278.32 173.51 273.73 143.97 267.57 136.4 274.24 84.25 267.37 66.78 255.63 40.88 248.26 31.04 238.79 12.7 233.16 6.8 233.52 1.39 233.85 1 224.71 5.22 224.67 6.66 223.06 9.04 223.5 11.27 224.75 13 226.52 17.6 227.55 18.5 226.74 19.85 225.81 27.91 229.17 29.38 228 30.77 229.16 59.34 243.51 63.6 245.3 70.54 248.69 75.9 250.88 79.52 252.57 84.73 255.03 90.5 256.89 97.09 258.65 102.22 260.01 110.61 261.63 115.47 262.34 120.22 262.27 125.76 260.8 129.92 259.59 133.49 258.11 136.01 256.78 137.5 256.59 145.2 264.73 148.71 264.42 148.88 261.81 143.54 253.29 161.27 247.58 178.31 240.26 183.52 233.55 187.11 228.01 182.77 221.53 184.91 220.04 184.07 215.24 180.84 207.86 176.1 200.87 175.88 196.49 174.01 192.46 169.85 177.76 172.85 173.9 177.55 173.32 186.23 171.31 186.7 171.06 242.1 166.77 245.99 157.2 238.88 147.41 224.37 137.88 216.2 125.24 206.16 114.65 195.85 112.66 184.83 96.26 170.76 81.49 162.06 77.53 159.35 71.05 151.87 65.71 139.86 58.73 137.27 51.61 799 1 798.82 3.74 797.15 6.82 797.09 6.41 797 6.12 796.83 5.6 796.04 5.1 795.6 5.04 795.09 5.09 794.31 5.26 793.36 5.34 792.43 5.57 791.55 5.86 790.61 6.12 789.6 6 788.74 5.84 787.86 5.85 787.05 5.95 786.22 5.89 785.35 5.99 784.54 6.16 783.71 6.1 782.74 6.29 781.74 6.28 780.75 6.2 779.86 6.33 777.75 6.19 776.79 6.19 776.13 6.48 775.12 6.53 774.22 6.47 773.48 6.69 772.45 6.82 771.54 6.92 770.41 6.94 769.47 6.84 768.58 6.88 767.68 7.14 766.06 7.21 764.98 7.34 763.94 7.55 763.22 7.72 762.27 7.9 761.7 8.11 760.71 8.08 759.72 7.98 758.69 7.99 757.79 8.23 756.89 8.19 756.02 8.11 755.23 7.86 754.31 7.64 753.27 7.67 752.57 7.92 751.76 8.31 750.87 8.6 749.89 8.62 748.92 8.47 748.07 8.56 747.27 8.39 746.21 8.45 745.29 8.4 744.44 8.33 743.6 8.33 742.68 8.3 741.61 8.35 740.76 8.33 739.99 8.49 739.08 8.86 738.23 9.09 737.43 9.15 736.4 9.38 735.62 9.58 734.79 9.3 734.14 8.8 733.42 8.74 732.44 8.64 731.61 8.92 730.77 9.07 730.03 9.15 729.15 9.58 728.3 9.81 727.37 10.01 726.51 10.02 726.06 9.83 725.99 9.83 725.96 9.82 725.7 9.9 724.97 10.1 724.45 10.44 724.2 10.7 723.74 10.86 723.48 10.95 722.92 11.28 722.35 11.67 721.77 12.19 721 12.53 720.54 13.23 720.01 13.73 719.27 14.33 718.67 15.05 718.06 15.71 717.35 16.41 716.85 16.94 716.34 17.36 715.68 18.02 714.96 18.87 714.33 19.66 713.58 20.43 713.05 21.23 712.47 21.95 712.01 22.87 711.7 23.73 711.29 24.24 711.26 24.35 710.88 24.87 710.22 25.71 709.73 26.38 709.05 27.12 708.43 28.06 707.99 28.87 707.55 29.77 707.02 30.53 706.36 31.17 705.73 31.6 705.49 32.28 705.2 33.05 704.73 33.58 704.31 33.89 703.38 34.9 702.49 35.36 701.6 35.87 700.64 36.47 699.78 37.04 698.75 37.39 697.72 37.79 696.8 38.1 695.69 38.19 694.54 38.4 693.52 38.57 692.34 38.25 691.3 38.47 690.3 38.65 689.3 38.88 688.35 39.16 687.29 39.31 686.26 39.27 685.2 39.09 684.17 38.85 683.09 39.09 682.19 39 681.29 38.84 680.21 39.04 679.11 39.41 677.99 39.67 676.99 40.1 675.9 40.33 674.96 40.18 673.95 40.35 672.85 40.12 671.81 40.04 670.83 40.23 669.65 40.12 668.57 39.26 667.51 39.18 666.23 39.35 665.04 39.58 663.94 39.7 662.96 40 661.96 40.34 661.23 40.21 660.06 40.21 658.99 40.37 657.91 40.09 656.97 39.81 656.02 39.51 655.08 39.35 653.99 39.24 652.9 39.1 651.75 39.15 650.75 39.24 649.6 39.37 648.47 39.43 647.78 39.93 646.73 40.35 646.07 40.4 645.07 40.27 644.01 39.98 643.06 40.04 641.8 39.91 639.65 40.35 638.62 40.61 637.69 40.96 636.4 40.48 635.29 40.57 634.28 40.59 633.15 40.68 632.04 40.8 631.02 41.1 629.82 40.52 628.83 40.3 627.21 41.5 626.48 43.18 625.57 44.24 624.38 44.3 623.28 44.32 622.23 44.38 621.17 43.45 620.01 43.4 619.22 43.72 617.71 43.27 616.68 42.84 615.28 41.25 614.35 40.9 613.73 40.29 612.87 39.74 612.66 39.03 611.89 38.2 611.64 37.21 611.95 36.34 611.65 35.4 610.8 34.76 609.76 34.13 608.97 33.44 608.01 32.78 607.08 32.84 606.01 32.78 604.88 32.68 603.88 33.01 602.89 33.09 601.81 33.41 600.67 33.37 599.85 33.04 599.01 32.68 597.92 32.92 596.96 32.82 595.84 32.76 594.71 32.81 593.68 32.95 592.53 32.9 591.39 32.75 590.39 32.51 589.28 32.46 588.2 32.35 587.15 32.52 586.04 32.58 585.03 32.54 583.88 32.85 582.8 32.82 581.88 32.76 580.74 32.6 579.97 32.1 578.99 31.64 578 31.31 577.02 31.05 575.93 31.1 573.65 30.69 572.65 30.39 570.55 30.14 568.85 30.35 568.15 29.93 567.39 29.6 566.53 29.25 565.67 28.93 564.67 28.99 563.56 29.08 562.64 29.04 562.04 28.42 561.48 27.73 561.08 26.88 560.6 26.17 559.99 25.49 559.03 24.95 558.27 25.06 557.42 25.36 556.59 26.02 555.7 26.28 554.58 25.99 553.54 25.76 552.52 25.86 551.89 25.95 551.01 26.43 549.88 26.32 549.37 26.17 548.61 26.08 547.73 26.01 546.61 25.94 544.42 25.48 543.28 25.53 542.2 25.63 541.04 25.68 539.94 25.71 538.82 25.96 537.82 26.24 536.77 26.58 535.78 27.08 534.91 27.66 533.88 27.77 532.92 28 531.86 28.46 531.02 29.15 530.52 29.89 530.49 30.88 531.06 31.82 531.09 32.8 530.89 33.78 530.8 34.76 530.91 35.87 531.3 36.71 531.33 37.63 531.84 38.42 531.73 39.24 531.02 39.94 530.11 40.39 529.05 40.73 528 41.19 527.05 41.74 525.93 42.16 524.96 42.94 524.05 43.62 523.19 44.43 522.24 45.06 521.23 45.42 520.23 46.24 519.45 47.07 518.59 47.42 517.7 47.75 516.65 47.39 515.83 47.01 514.71 47.15 513.69 47.18 512.54 47.17 511.74 47.46 511.13 47.21 510.07 47.08 509.19 46.98 508.1 47.08 507.12 47.22 505.88 47.14 504.82 47.13 503.75 47.35 502.55 47.5 501.51 47.94 500.69 48.61 499.96 49.15 499.05 49.5 497.85 49.63 496.93 49.55 496.34 50.02 495.78 50.56 495.46 50.81 495.15 50.56 494.4 50.37 494.03 50.1 493.51 49.67 492.86 49.23 492.21 49.12 491.39 48.74 490.35 48.6 489.51 48.22 488.54 47.87 487.48 48.1 486.34 48.04 485.24 48.06 484.03 48.46 483.12 48.87 482.12 48.87 480.99 49.04 480 49.03 478.89 49.11 478.09 49.12 477.11 48.86 476.02 48.78 474.98 48.9 474.08 48.37 472.96 48.43 471.8 48.56 470.69 48.74 469.61 48.94 468.6 49.44 467.49 49.97 466.69 50.71 464.72 51.67 463.63 52.04 462.62 52.66 461.59 53.09 460.7 53.74 459.67 54.3 458.8 55.03 457.91 55.66 457.35 56.52 456.53 57.34 455.68 58.14 454.86 58.8 453.75 59.04 452.73 59.21 451.76 59.61 450.76 60.2 449.8 60.84 449 61.61 448.14 62.39 447.81 63.57 447.38 64.59 447.2 65.62 447.21 66.45 447.11 67.43 447.58 68.28 447.87 69.22 448.07 70.26 448.23 71.37 448.22 72.45 447.96 73.49 447.63 74.7 447.49 75.15 447.24 75.99 447.31 76.88 448.09 77.52 448.37 78.39 447.94 79.3 447.99 80.43 448.25 81.38 448.3 82.42 449.08 83.82 449.53 84.74 450.35 85.51 450.91 86.45 450.86 87.52 450.6 88.46 449.88 89.31 449.7 90.12 449.79 91.24 449.63 92.41 449.55 93.53 449.85 94.73 449.82 95.71 450.4 96.68 450.89 97.7 451.53 98.69 451.94 99.72 452.33 100.77 452.51 101.82 452.68 102.99 452.67 104.12 452.7 105.32 452.77 106.16 452.81 106.86 452.53 108.18 452.03 108.98 451.14 110.53 451.19 110.51 451.23 111.63 451.67 112.64 451.84 114.17 452.21 114.98 452.47 115.72 453.41 116.15 454.18 117.01 455.2 117.47 456.56 117.78 457.71 118.37 458.61 118.19 459.9 117.77 461.27 117.38 462.53 116.97 463.69 116.77 465.03 117.03 466.23 117.49 466.8 117.46 467.78 117.26 467.99 117.22 469.19 117.41 470.96 117.16 471.87 116.97 473.07 117.41 474.55 117.22 476.03 117.28 478.01 117.03 478.4 116.87 479.39 116.89 480.68 116.75 481.75 116.36 482.87 116.18 484.12 115.84 485.5 115.44 486.63 115.44 487.35 115.77 487.98 115.68 488.46 115.4 488.96 115.44 490.05 115.45 490.78 115.17 491.67 114.73 492.89 114.52 494.01 114.79 495.52 114.93 496.18 115.14 497.36 115.26 498.44 115.6 499.9 115.19 500.83 114.96 502.01 114.36 502.94 114.56 504.02 114.73 505.1 114.76 505.96 114.88 507.18 114.64 508.38 114.53 509.44 114.62 510.29 114.75 511.34 114.95 512.51 114.76 513.57 114.91 520.22 113.71 521.54 113.74 522.43 113.55 523.28 113.16 524.68 113.38 527.33 112.54 528.55 112.72 529.23 112.99 530.6 113 531.45 113.04 532.35 113.35 533.56 113.24 534.62 112.79 535.94 112.44 536.97 112.52 538.13 112.55 539.15 112.74 540.35 112.4 541.07 112.72 542.33 113.13 543.42 112.97 544.46 112.93 545.58 113 546.64 112.88 547.6 112.64 548.76 112.53 549.94 112.62 551.2 112.58 552.46 112.35 553.28 112.4 554.64 112.55 555.3 112.62 556.49 112.31 557.62 111.82 558.6 111.64 559.71 111.3 561.97 111.39 563.16 111.57 564.13 111.42 565.04 111.56 566.11 111.63 567.12 111.42 568.19 111.37 569.34 111.23 570.35 111.19 571.32 111.27 571.75 110.95 572.48 110.86 573.49 110.84 574.58 110.8 575.71 110.79 577.18 110.66 582.89 109.35 592.02 109.5 602.64 108.55 608.5 108.11 609.14 108.03 609.81 108.1 611.98 107.85 614.14 107.59 616.74 107.72 617.95 107.57 619.78 107.74 622.61 107.78 625.05 107.41 627.14 107.41 629.7 107.04 631.91 106.77 638.79 105.92 644.08 105.48 650.84 104.44 656.38 104.8 659.47 104.88 663.8 105.12 664.09 105.1 665.09 105.15 673.77 104.53 681.19 103.42 685.55 103.01 686.15 102.88 686.44 102.93 687.52 102.83 695.39 102.83 698.15 102.64 698.65 102.58 698.75 102.6 700.87 102.46 708.02 102.02 718.48 101.35 724.76 100.77 730.84 100.48 738.68 99.83 745.02 99.27 752.08 98.64 758.67 98.36 763.55 98.36 771.42 97.78 777.06 97.26 778.89 97.31 779.82 97.21 780.73 97.37 781.87 97.41 785.7 97.04 788.54 97.04 792.37 95.48 Z"/>
</g>
</svg>